<svg width="78" height="76" viewBox="0 0 78 76" fill="none" xmlns="http://www.w3.org/2000/svg">
<ellipse cx="39" cy="37.8271" rx="39" ry="37.8271" fill="#474747"/>
<path d="M32.2053 34.1389C32.2053 34.4192 32.0894 34.6881 31.8831 34.8863C31.6768 35.0845 31.3969 35.1959 31.1052 35.1959C30.8134 35.1959 30.5336 35.0845 30.3273 34.8863C30.121 34.6881 30.0051 34.4192 30.0051 34.1389C30.0051 33.8586 30.121 33.5897 30.3273 33.3915C30.5336 33.1933 30.8134 33.0819 31.1052 33.0819C31.3969 33.0819 31.6768 33.1933 31.8831 33.3915C32.0894 33.5897 32.2053 33.8586 32.2053 34.1389ZM28.905 37.3098C29.1967 37.3098 29.4765 37.1985 29.6828 37.0002C29.8892 36.802 30.0051 36.5332 30.0051 36.2528C30.0051 35.9725 29.8892 35.7037 29.6828 35.5055C29.4765 35.3072 29.1967 35.1959 28.905 35.1959C28.6132 35.1959 28.3334 35.3072 28.1271 35.5055C27.9207 35.7037 27.8048 35.9725 27.8048 36.2528C27.8048 36.5332 27.9207 36.802 28.1271 37.0002C28.3334 37.1985 28.6132 37.3098 28.905 37.3098ZM34.4055 36.2528C34.4055 36.5332 34.2896 36.802 34.0833 37.0002C33.877 37.1985 33.5972 37.3098 33.3054 37.3098C33.0136 37.3098 32.7338 37.1985 32.5275 37.0002C32.3212 36.802 32.2053 36.5332 32.2053 36.2528C32.2053 35.9725 32.3212 35.7037 32.5275 35.5055C32.7338 35.3072 33.0136 35.1959 33.3054 35.1959C33.5972 35.1959 33.877 35.3072 34.0833 35.5055C34.2896 35.7037 34.4055 35.9725 34.4055 36.2528ZM31.1052 39.4238C31.3969 39.4238 31.6768 39.3124 31.8831 39.1142C32.0894 38.916 32.2053 38.6471 32.2053 38.3668C32.2053 38.0865 32.0894 37.8176 31.8831 37.6194C31.6768 37.4212 31.3969 37.3098 31.1052 37.3098C30.8134 37.3098 30.5336 37.4212 30.3273 37.6194C30.121 37.8176 30.0051 38.0865 30.0051 38.3668C30.0051 38.6471 30.121 38.916 30.3273 39.1142C30.5336 39.3124 30.8134 39.4238 31.1052 39.4238ZM16.8037 33.0819H19.004V35.1959H21.2042V37.3098H19.004V39.4238H16.8037V37.3098H14.6035V35.1959H16.8037V33.0819Z" fill="black"/>
<path d="M13.6158 28.2897C13.5783 28.1554 13.5686 28.0154 13.5874 27.8776C13.6062 27.7398 13.6532 27.6069 13.7255 27.4865C13.7979 27.3661 13.8942 27.2607 14.009 27.1761C14.1239 27.0916 14.2549 27.0296 14.3947 26.9938L18.6455 25.8988C18.7917 25.8614 18.9443 25.8533 19.0938 25.8751C19.2433 25.8969 19.3866 25.9481 19.5146 26.0254C19.6426 26.1028 19.7526 26.2047 19.8378 26.3248C19.923 26.4448 19.9815 26.5805 20.0097 26.7232C21.4508 26.5562 22.98 26.4759 24.5047 26.4759C26.0889 26.4759 27.6796 26.5626 29.1692 26.7423C29.1949 26.5973 29.2518 26.4592 29.3363 26.3366C29.4207 26.214 29.5309 26.1096 29.6597 26.0303C29.7885 25.9509 29.9331 25.8982 30.0843 25.8755C30.2355 25.8529 30.3899 25.8608 30.5377 25.8988L34.7886 26.9938C34.9508 27.0355 35.1009 27.1124 35.2274 27.2184C35.3539 27.3245 35.4535 27.457 35.5185 27.6057C35.5834 27.7545 35.6121 27.9156 35.6023 28.0766C35.5925 28.2377 35.5444 28.3944 35.4618 28.5349C35.7699 28.7251 36.0471 28.9365 36.2825 29.1627C37.1802 30.0252 37.9987 31.3823 38.6918 32.9086C39.3958 34.4581 40.0097 36.2719 40.4629 38.1216C40.9162 39.9713 41.211 41.8844 41.2638 43.6305C41.3166 45.3555 41.134 47.017 40.5421 48.3023C40.2722 48.8793 39.8195 49.3597 39.2485 49.6748C38.6776 49.9899 38.0176 50.1236 37.3628 50.0569C35.9635 49.9152 34.9096 49.224 34.0339 48.4228C33.4948 47.9324 32.9426 47.3109 32.4079 46.7147C32.1307 46.4019 31.8579 46.0975 31.5982 45.8205C29.9965 44.1209 28.0845 42.5926 24.5047 42.5926C20.925 42.5926 19.013 44.1209 17.4112 45.8205C17.1494 46.0975 16.8788 46.4019 16.6015 46.7147C16.0669 47.3109 15.5146 47.9303 14.9756 48.4228C14.0999 49.2261 13.046 49.9152 11.6466 50.0569C10.9919 50.1236 10.3319 49.9899 9.76093 49.6748C9.18997 49.3597 8.73722 48.8793 8.46731 48.3023C7.87325 47.017 7.69283 45.3534 7.74344 43.6305C7.79624 41.8844 8.09548 39.9734 8.54652 38.1216C8.99977 36.2719 9.61583 34.4581 10.3177 32.9086C11.0108 31.3823 11.8293 30.0252 12.7247 29.1627C13.0124 28.8917 13.3321 28.654 13.6774 28.4545C13.6521 28.4006 13.6315 28.3469 13.6158 28.2897ZM18.0955 29.1606C16.1659 29.5517 14.8634 30.0971 14.2825 30.6573C13.6752 31.2407 12.991 32.3125 12.3353 33.7542C11.6397 35.3219 11.089 36.9453 10.6895 38.6057C10.2675 40.2734 10.0177 41.977 9.94366 43.6918C9.89526 45.2878 10.0801 46.5837 10.4783 47.4462C10.5599 47.6142 10.6941 47.7534 10.8622 47.8444C11.0303 47.9354 11.2238 47.9735 11.4156 47.9535C12.1351 47.8816 12.7577 47.5328 13.4596 46.8923C13.9261 46.4653 14.3397 45.9981 14.8128 45.4675C15.1054 45.1377 15.42 44.7847 15.7808 44.4021C17.5982 42.4721 20.0559 40.4807 24.5047 40.4807C28.9536 40.4807 31.4112 42.4721 33.2286 44.4021C33.5894 44.7847 33.9041 45.1377 34.1967 45.4675C34.6675 45.9981 35.0834 46.4653 35.5498 46.8923C36.2495 47.5328 36.8722 47.8816 37.5938 47.9556C37.7859 47.9755 37.9796 47.937 38.1477 47.8456C38.3158 47.7542 38.4499 47.6145 38.5311 47.4462C38.9272 46.5837 39.1142 45.2899 39.0658 43.6918C38.9917 41.977 38.7419 40.2734 38.3199 38.6057C37.9204 36.9453 37.3697 35.3219 36.6742 33.7542C36.0185 32.3125 35.332 31.2386 34.727 30.6573C34.1461 30.0971 32.8436 29.5517 30.914 29.1606C29.0438 28.7822 26.7842 28.5898 24.5047 28.5898C22.2253 28.5898 19.9657 28.7822 18.0955 29.1606Z" fill="black"/>
<path d="M50.0561 45.4015C48.6921 45.4015 47.4534 45.1481 46.3399 44.6415C45.2153 44.1404 44.3162 43.361 43.6425 42.3032C42.9689 41.2454 42.6321 39.912 42.6321 38.3031C42.6321 37.0226 42.8965 35.8757 43.4254 34.8624C43.9543 33.8492 44.7226 33.0558 45.7303 32.4824C46.7436 31.9034 47.935 31.6139 49.3046 31.6139C49.8836 31.6139 50.4459 31.7113 50.9915 31.9062C51.5426 32.101 51.9769 32.385 52.2942 32.758L52.5698 31.8728H55.4593V36.7748H52.8788C52.7062 36.0733 52.375 35.5417 51.885 35.1798C51.3951 34.8179 50.8829 34.637 50.3484 34.637C49.4577 34.637 48.7534 34.9626 48.2356 35.614C47.7179 36.2654 47.459 37.1618 47.459 38.3031C47.459 39.4555 47.7151 40.3602 48.2273 41.0172C48.7395 41.6685 49.4632 41.9942 50.3985 41.9942C50.6212 41.9942 50.8606 41.972 51.1167 41.9274C51.306 41.894 51.4842 41.8495 51.6512 41.7938C51.8182 41.7326 51.9296 41.6964 51.9852 41.6852V40.5077H50.3818V38.0275H55.7349V43.9985C54.8775 44.455 53.9589 44.803 52.979 45.0424C51.9992 45.2818 51.0249 45.4015 50.0561 45.4015ZM64.4366 45.4015C63.0726 45.4015 61.8339 45.1481 60.7204 44.6415C59.5958 44.1404 58.6967 43.361 58.023 42.3032C57.3494 41.2454 57.0126 39.912 57.0126 38.3031C57.0126 37.0226 57.277 35.8757 57.8059 34.8624C58.3348 33.8492 59.1031 33.0558 60.1108 32.4824C61.1241 31.9034 62.3155 31.6139 63.685 31.6139C64.2641 31.6139 64.8264 31.7113 65.372 31.9062C65.9231 32.101 66.3574 32.385 66.6747 32.758L66.9503 31.8728H69.8398V36.7748H67.2593C67.0867 36.0733 66.7554 35.5417 66.2655 35.1798C65.7756 34.8179 65.2634 34.637 64.7289 34.637C63.8382 34.637 63.1339 34.9626 62.6161 35.614C62.0984 36.2654 61.8395 37.1618 61.8395 38.3031C61.8395 39.4555 62.0956 40.3602 62.6078 41.0172C63.12 41.6685 63.8437 41.9942 64.779 41.9942C65.0017 41.9942 65.2411 41.972 65.4972 41.9274C65.6865 41.894 65.8647 41.8495 66.0317 41.7938C66.1987 41.7326 66.3101 41.6964 66.3657 41.6852V40.5077H64.7623V38.0275H70.1154V43.9985C69.258 44.455 68.3394 44.803 67.3595 45.0424C66.3797 45.2818 65.4054 45.4015 64.4366 45.4015Z" fill="white"/>
</svg>
